<svg width="28" height="28" viewBox="0 0 28 28" fill="none" xmlns="http://www.w3.org/2000/svg">
<path d="M27 7.00002H22V1.00002C22 0.447715 21.5523 0 21 0H1.00002C0.447715 0 0 0.447715 0 1.00002V24C0 26.2091 1.79086 28 4.00002 28H24C26.2091 28 28 26.2091 28 24V7.99998C28 7.44773 27.5523 7.00002 27 7.00002ZM7.99998 4.99998H14C14.5523 4.99998 15 5.44769 15 6C15 6.5523 14.5523 7.00002 14 7.00002H7.99998C7.44767 7.00002 6.99996 6.5523 6.99996 6C6.99996 5.44769 7.44773 4.99998 7.99998 4.99998ZM17 24H4.99998C4.44767 24 3.99996 23.5523 3.99996 23C3.99996 22.4477 4.44767 21.9999 4.99998 21.9999H17C17.5523 21.9999 18 22.4477 18 23C18 23.5523 17.5523 24 17 24ZM17 20H4.99998C4.44767 20 3.99996 19.5523 3.99996 18.9999C3.99996 18.4476 4.44767 17.9999 4.99998 17.9999H17C17.5523 17.9999 18 18.4476 18 18.9999C18 19.5523 17.5523 20 17 20ZM17 16H4.99998C4.44767 16 3.99996 15.5523 3.99996 15C3.99996 14.4477 4.44767 14 4.99998 14H17C17.5523 14 18 14.4477 18 15C18 15.5523 17.5523 16 17 16ZM17 12H4.99998C4.44767 12 3.99996 11.5523 3.99996 11C3.99996 10.4477 4.44767 9.99995 4.99998 9.99995H17C17.5523 9.99995 18 10.4477 18 11C18 11.5523 17.5523 12 17 12ZM26 24C26 25.1045 25.1045 26 24 26C22.8954 26 22 25.1045 22 24V8.99999H26L26 24Z" fill="white"/>
</svg>
