<svg width="28" height="28" viewBox="0 0 28 28" fill="none" xmlns="http://www.w3.org/2000/svg">
<path d="M28 2C28 0.895431 27.1046 0 26 0H17.5555C16.451 0 15.5555 0.895429 15.5555 2V7.33333C15.5555 8.4379 16.451 9.33333 17.5555 9.33333H26C27.1046 9.33333 28 8.4379 28 7.33333V2Z" fill="white"/>
<path d="M12.4445 2C12.4445 0.89543 11.549 0 10.4445 0H2C0.895431 0 0 0.895429 0 2V13.5555C0 14.6601 0.895432 15.5555 2 15.5555H10.4445C11.549 15.5555 12.4445 14.6601 12.4445 13.5555V2Z" fill="white"/>
<path d="M12.4445 20.6667C12.4445 19.5621 11.549 18.6667 10.4445 18.6667H2C0.895431 18.6667 0 19.5621 0 20.6667V26C0 27.1046 0.895432 28 2 28H10.4445C11.549 28 12.4445 27.1046 12.4445 26V20.6667Z" fill="white"/>
<path d="M28 14.4445C28 13.3399 27.1046 12.4445 26 12.4445H17.5555C16.451 12.4445 15.5555 13.3399 15.5555 14.4445V26C15.5555 27.1046 16.451 28 17.5555 28H26C27.1046 28 28 27.1046 28 26V14.4445Z" fill="white"/>
</svg>
