<svg width="22" height="28" viewBox="0 0 22 28" fill="none" xmlns="http://www.w3.org/2000/svg">
<path d="M13.4369 9.44756C13.4369 8.09603 12.3437 6.99649 11 6.99649C9.65636 6.99649 8.56321 8.09603 8.56321 9.44756C8.56321 10.7991 9.65636 11.8986 11 11.8986C12.3437 11.8986 13.4369 10.7991 13.4369 9.44756Z" fill="white"/>
<path d="M21.2077 8.21387H19.5007C19.3669 7.81018 19.2044 7.41601 19.0143 7.03448L20.222 5.81983C20.5314 5.50863 20.5314 5.00388 20.222 4.69267L17.3348 1.7886C17.0253 1.47749 16.5236 1.47749 16.2142 1.7886L15.0066 3.00334C14.6271 2.81215 14.2354 2.64858 13.8341 2.51405V0.797007C13.8341 0.356834 13.4794 0 13.0417 0H8.95855C8.52093 0 8.16617 0.356834 8.16617 0.797007V2.51396C7.76492 2.64858 7.37314 2.81206 6.99372 3.00325L5.78594 1.78869C5.47664 1.47758 4.97491 1.47768 4.66542 1.78869L1.77821 4.69267C1.62965 4.84219 1.54614 5.04489 1.54614 5.25625C1.54614 5.46762 1.62965 5.67031 1.77821 5.81983L2.9859 7.03448C2.79582 7.41601 2.6332 7.81018 2.49945 8.21387H0.792379C0.354761 8.21387 0 8.5707 0 9.01088V13.1178C0 13.558 0.354761 13.9148 0.792379 13.9148H2.49936C2.6332 14.3185 2.79573 14.7126 2.98581 15.0941L1.77821 16.3088C1.62965 16.4583 1.54614 16.661 1.54614 16.8723C1.54614 17.0838 1.62965 17.2864 1.77821 17.4359L4.66542 20.3399C4.97491 20.651 5.47654 20.651 5.78604 20.3399L5.88886 20.2365L5.86908 20.2062C5.71546 19.9709 5.63457 19.6983 5.63457 19.4174V15.1478C5.63457 14.4276 5.86017 13.7486 6.25383 13.1893C5.96515 12.5395 5.80319 11.8207 5.80319 11.0642C5.80319 8.18191 8.13449 5.83699 11 5.83699C13.8656 5.83699 16.1969 8.18191 16.1969 11.0642C16.1969 11.8186 16.0359 12.5356 15.7487 13.1839C16.1409 13.7407 16.3655 14.4175 16.3655 15.1365V19.4173C16.3655 19.6982 16.2846 19.9707 16.1314 20.2055L16.1111 20.2364L16.2141 20.3399C16.5234 20.6508 17.025 20.651 17.3347 20.3399L20.2219 17.4359C20.3704 17.2864 20.454 17.0837 20.454 16.8723C20.454 16.661 20.3704 16.4583 20.2219 16.3088L19.0142 15.0941C19.2043 14.7125 19.3669 14.3183 19.5006 13.9147H21.2076C21.6452 13.9147 22 13.5579 22 13.1177V9.01088C22.0001 8.5707 21.6453 8.21387 21.2077 8.21387Z" fill="white"/>
<path d="M13.6766 13.0865L13.6724 13.0852L12.977 12.8705C12.8673 12.8366 12.7626 12.9005 12.7106 13.0038C12.3966 13.6273 11.6718 14.7895 11.2481 15.3809C11.1041 15.582 10.8969 15.5813 10.752 15.3809C10.3245 14.7895 9.6035 13.6273 9.2896 13.0038C9.24761 12.9203 9.17525 12.8608 9.08687 12.8608C9.06587 12.8608 8.3286 13.0849 8.3286 13.0849C7.44015 13.3827 6.84648 14.2111 6.84648 15.1479V19.4176C6.84648 19.4599 6.85885 19.5014 6.88191 19.5369L8.4079 21.8726V27.7827C8.4079 27.9027 8.50463 28 8.62394 28H13.3762C13.4956 28 13.5923 27.9027 13.5923 27.7827V21.8726L15.1183 19.5369C15.1414 19.5014 15.1537 19.46 15.1537 19.4176V15.1368C15.1537 14.204 14.5578 13.3768 13.6766 13.0865Z" fill="white"/>
</svg>
