<svg width="27" height="32" viewBox="0 0 27 32" fill="none" xmlns="http://www.w3.org/2000/svg">
<path d="M26.5726 26.9907L24.2819 23.1747C23.2259 21.4134 22.6672 19.3974 22.6672 17.3427V14C22.6672 8.85474 18.4792 4.66673 13.3339 4.66673C8.1886 4.66673 4.0006 8.85474 4.0006 14V17.3427C4.0006 19.3974 3.44192 21.4134 2.38592 23.1747L0.0952277 26.9907C-0.0287722 27.196 -0.0314596 27.4534 0.0859154 27.6614C0.204603 27.8707 0.427228 28.0001 0.667228 28.0001H26.0005C26.2405 28.0001 26.4632 27.8708 26.5819 27.6614C26.6992 27.4534 26.6966 27.196 26.5726 26.9907ZM1.8446 26.6667L3.5286 23.86C4.70992 21.892 5.33392 19.6387 5.33392 17.3427V14C5.33392 9.58805 8.92192 6.00005 13.3339 6.00005C17.7459 6.00005 21.3339 9.58805 21.3339 14V17.3427C21.3339 19.6387 21.9579 21.892 23.1379 23.86L24.8232 26.6667H1.8446Z" fill="#6CE555"/>
<path d="M13.334 0.00012207C11.8634 0.00012207 10.6674 1.19612 10.6674 2.66681V5.3335C10.6674 5.70143 10.966 6.00012 11.334 6.00012C11.702 6.00012 12.0007 5.70143 12.0007 5.33343V2.66681C12.0007 1.93081 12.598 1.3335 13.334 1.3335C14.07 1.3335 14.6674 1.93081 14.6674 2.66681V5.3335C14.6674 5.70143 14.966 6.00012 15.334 6.00012C15.702 6.00012 16.0007 5.70143 16.0007 5.33343V2.66681C16.0007 1.19612 14.8047 0.00012207 13.334 0.00012207Z" fill="#6CE555"/>
<path d="M16.2191 26.9961C16.0311 26.6788 15.6244 26.5748 15.3057 26.7574C14.9871 26.9441 14.8804 27.3534 15.0671 27.6707C15.2404 27.9654 15.3351 28.3187 15.3351 28.6667C15.3351 29.7694 14.4377 30.6667 13.3351 30.6667C12.2324 30.6667 11.3351 29.7694 11.3351 28.6667C11.3351 28.3187 11.4297 27.9654 11.6031 27.6707C11.7884 27.352 11.6817 26.944 11.3644 26.7574C11.0431 26.5747 10.6377 26.6787 10.4511 26.9961C10.1564 27.5001 10.0004 28.0774 10.0004 28.6668C10.0004 30.5054 11.4951 32.0001 13.3337 32.0001C15.1724 32.0001 16.6671 30.5054 16.6697 28.6668C16.6697 28.0774 16.5137 27.5001 16.2191 26.9961Z" fill="#6CE555"/>
</svg>
