<svg width="28" height="28" viewBox="0 0 28 28" fill="none" xmlns="http://www.w3.org/2000/svg">
<path d="M1.28049 24.5591H12.0021C13.645 26.6536 16.1877 28 19.0366 28C23.979 28 28 23.9481 28 18.9677C28 13.9874 23.979 9.93548 19.0366 9.93548C16.0925 9.93548 13.4754 11.3734 11.8404 13.5888C11.1777 13.4488 10.5007 13.3763 9.81707 13.3763C4.40394 13.3763 0 17.8141 0 23.2688C0 23.9814 0.573317 24.5591 1.28049 24.5591ZM19.0366 12.5161C22.5669 12.5161 25.439 15.4103 25.439 18.9677C25.439 22.5252 22.5669 25.4194 19.0366 25.4194C15.5063 25.4194 12.6341 22.5252 12.6341 18.9677C12.6341 15.4103 15.5063 12.5161 19.0366 12.5161Z" fill="white"/>
<path d="M9.81706 0C6.86323 0 4.46026 2.4215 4.46026 5.39794C4.46026 8.37437 6.86323 10.7957 9.81706 10.7957C12.7708 10.7957 15.1738 8.37437 15.1738 5.39794C15.1738 2.4215 12.7708 0 9.81706 0Z" fill="white"/>
<path d="M16.4756 20.2581H17.7561V21.5484C17.7561 22.261 18.3294 22.8387 19.0366 22.8387C19.7438 22.8387 20.3171 22.261 20.3171 21.5484V20.2581H21.5976C22.3047 20.2581 22.878 19.6803 22.878 18.9677C22.878 18.2551 22.3047 17.6774 21.5976 17.6774H20.3171V16.3871C20.3171 15.6745 19.7438 15.0968 19.0366 15.0968C18.3294 15.0968 17.7561 15.6745 17.7561 16.3871V17.6774H16.4756C15.7684 17.6774 15.1951 18.2551 15.1951 18.9677C15.1951 19.6803 15.7684 20.2581 16.4756 20.2581Z" fill="white"/>
</svg>
