<svg width="28" height="28" viewBox="0 0 28 28" fill="none" xmlns="http://www.w3.org/2000/svg">
<path d="M26.9763 11.9612L24.2026 11.4985C24.001 10.6743 23.707 9.88645 23.3242 9.15164L25.0999 6.95001C25.4775 6.48473 25.4604 5.81526 25.0622 5.36619L23.9591 4.12466C23.5592 3.67607 22.8961 3.58119 22.3902 3.90075L20.0182 5.39188C18.9749 4.66294 17.793 4.12466 16.5182 3.81232L16.0541 1.02372C15.9567 0.43325 15.4458 0 14.846 0H13.1835C12.5849 0 12.0722 0.43325 11.977 1.02372L11.5104 3.81319C10.4564 4.07125 9.46813 4.48782 8.56626 5.03644L6.31038 3.4265C5.82419 3.07916 5.15641 3.13347 4.73213 3.55685L3.55766 4.73216C3.13428 5.15644 3.07997 5.82422 3.42822 6.31041L5.04191 8.5706C4.49844 9.46567 4.08616 10.4483 3.82813 11.4929L1.02366 11.9612C0.434094 12.0586 0 12.5696 0 13.1695V14.8306C0 15.4304 0.434094 15.9414 1.02366 16.0388L3.82813 16.5071C4.04004 17.3667 4.34766 18.1878 4.75654 18.9492L2.98897 21.1384C2.6126 21.6032 2.62841 22.2731 3.02657 22.7218L4.12888 23.9633C4.52879 24.4128 5.19226 24.5059 5.69813 24.1872L8.10438 22.6756C9.12254 23.372 10.2744 23.8839 11.5104 24.1872L11.977 26.9762C12.0723 27.5667 12.5849 28 13.1835 28H14.846C15.4458 28 15.9567 27.5668 16.0541 26.9763L16.519 24.1872C17.5598 23.9326 18.5356 23.5233 19.4294 22.9841L21.7793 24.6624C22.2646 25.011 22.9329 24.9563 23.3567 24.5316L24.5317 23.3567C24.9545 22.9337 25.0118 22.2662 24.6606 21.7792L22.9876 19.4336C23.5326 18.5355 23.9471 17.5511 24.2035 16.5018L26.9772 16.0387C27.5685 15.9413 28.0008 15.4303 28.0008 14.8305V13.1694C28 12.5696 27.5676 12.0586 26.9763 11.9612ZM14.0444 19.25C11.1455 19.25 8.79438 16.8985 8.79438 14C8.79438 11.1011 11.1455 8.75001 14.0444 8.75001C16.9428 8.75001 19.2943 11.1011 19.2943 14C19.2943 16.8985 16.9428 19.25 14.0444 19.25Z" fill="white"/>
</svg>
